<svg width="316" height="49" viewBox="0 0 316 49" fill="none" xmlns="http://www.w3.org/2000/svg">
	<g clip-path="url(#clip0_0_3)">
	<path d="M30.179 2.504C26.957 -0.687 21.817 -0.828 18.441 2.082L35.837 19.484C37.457 21.105 40.015 21.109 41.707 19.617C41.733 19.59 44.508 16.824 44.508 16.824L30.179 2.504Z" fill="#140096"/>
	<path d="M4.173 31.844L18.028 45.703C21.25 48.879 26.38 49.012 29.75 46.105L12.814 29.184C11.21 27.571 8.676 27.559 6.987 29.016C6.96 29.04 4.173 31.844 4.173 31.844Z" fill="#140096"/>
	<path d="M16.766 3.757L11.094 9.429L28.377 26.699C30.041 28.375 32.842 28.508 34.516 26.851L37.19 24.173L16.766 3.757Z" fill="#140096"/>
	<path d="M9.423 11.093L3.662 16.844L20.946 34.117C22.611 35.793 25.41 35.926 27.082 34.265L29.848 31.51L9.423 11.093Z" fill="#140096"/>
	<path d="M45.989 29.851C48.883 26.621 48.923 21.706 46.107 18.441L25.613 38.915L31.271 44.571C45.16 30.68 45.989 29.851 45.989 29.851Z" fill="#140096"/>
	<path d="M8.345 24.679L2.09 18.425C-0.821998 21.8 -0.744998 26.753 2.659 30.304L8.345 24.679Z" fill="#140096"/>
	<path d="M81.205 32.949C81.205 34.125 80.941 34.937 80.355 35.59C79.667 36.356 78.671 36.774 77.56 36.774C76.448 36.774 75.454 36.356 74.765 35.59C74.177 34.938 73.913 34.125 73.913 32.949V25.523H72.423V32.859C72.423 34.394 72.845 35.605 73.714 36.547C74.678 37.582 76.079 38.18 77.56 38.18C79.043 38.18 80.446 37.582 81.405 36.547C82.275 35.606 82.697 34.395 82.697 32.859V25.523H81.205V32.949Z" fill="#FDFDFC"/>
	<path d="M89.593 29.547C88.271 29.547 87.43 30.219 87.129 30.504L86.847 30.781V29.73H85.495V37.992H86.93V32.152C87.328 31.672 88.199 30.855 89.536 30.855C90.286 30.855 90.999 31.195 91.445 31.765C91.729 32.113 91.993 32.613 91.993 33.863V37.992H93.391V33.949C93.391 32.597 93.15 31.715 92.586 31.004C91.862 30.078 90.769 29.547 89.593 29.547Z" fill="#FDFDFC"/>
	<path d="M97.471 29.73H96.071V37.996H97.471V29.73Z" fill="#FDFDFC"/>
	<path d="M96.76 25.543C96.22 25.543 95.797 25.977 95.797 26.523C95.797 27.066 96.22 27.492 96.76 27.492C97.314 27.492 97.747 27.066 97.747 26.523C97.748 25.984 97.307 25.543 96.76 25.543Z" fill="#FDFDFC"/>
	<path d="M103.588 35.84L100.938 29.73H99.511L103.11 37.992L104.085 37.996L107.671 29.73H106.245L103.588 35.84Z" fill="#FDFDFC"/>
	<path d="M112.752 29.531C110.42 29.531 108.729 31.343 108.729 33.847C108.729 36.308 110.567 38.156 113.006 38.156C114.954 38.156 116.4 36.734 116.4 36.734L115.492 35.886C115.012 36.394 114.293 36.972 113.025 36.972C112.264 36.972 111.54 36.691 110.993 36.175C110.451 35.663 110.121 34.968 110.077 34.222L110.064 34.042L116.713 34.026C116.719 33.952 116.719 33.889 116.719 33.846C116.719 32.651 116.315 31.553 115.594 30.76C114.864 29.972 113.857 29.531 112.752 29.531ZM110.23 32.703C110.536 31.531 111.593 30.715 112.805 30.715C113.924 30.715 114.971 31.57 115.24 32.707L115.285 32.918H110.168L110.23 32.703Z" fill="#FDFDFC"/>
	<path d="M123.14 29.543C121.923 29.543 121.078 30.113 120.698 30.641L120.394 31.067V29.723H119.043V37.993H120.467V32.388C120.987 31.486 122.005 30.853 122.937 30.853C123.153 30.853 123.311 30.861 123.457 30.888L123.63 29.572C123.629 29.57 123.245 29.543 123.14 29.543Z" fill="#FDFDFC"/>
	<path d="M128.024 33.172C127.052 32.922 126.364 32.695 126.364 32.004C126.364 31.27 127.071 30.758 128.084 30.758C128.703 30.758 129.307 30.957 129.885 31.356L130.587 30.383C129.865 29.848 128.986 29.574 127.977 29.574C126.524 29.574 124.963 30.363 124.963 32.097C124.963 33.281 125.974 33.863 126.818 34.148C127.12 34.25 127.426 34.324 127.718 34.402C128.697 34.652 129.624 34.886 129.624 35.773C129.624 36.554 128.778 37.015 127.957 37.015C127.118 37.015 126.257 36.718 125.466 36.148L124.758 37.156C125.676 37.847 126.765 38.199 127.993 38.199C128.804 38.199 129.563 37.961 130.125 37.531C130.716 37.07 131.025 36.453 131.025 35.734C131.026 34.156 129.508 33.55 128.024 33.172Z" fill="#FDFDFC"/>
	<path d="M134.03 25.519C133.488 25.519 133.066 25.949 133.066 26.503C133.066 27.042 133.488 27.472 134.03 27.472C134.582 27.472 135.015 27.042 135.015 26.503C135.015 25.957 134.57 25.519 134.03 25.519Z" fill="#FDFDFC"/>
	<path d="M134.739 29.722H133.336V37.992H134.739V29.722Z" fill="#FDFDFC"/>
	<path d="M140.14 27.379H138.739V29.754H136.543V30.977H138.739V35.079C138.739 36.056 138.951 36.767 139.392 37.251C139.951 37.884 140.724 38.2 141.699 38.2C142.097 38.2 142.855 38.071 142.855 38.071L142.576 36.813C142.576 36.813 141.957 36.891 141.75 36.891C141.215 36.891 140.688 36.68 140.433 36.375C140.194 36.086 140.141 35.684 140.141 35.164V30.976H142.885V29.753H140.141V27.379H140.14Z" fill="#FDFDFC"/>
	<path d="M148.689 35.664L145.865 29.754H144.388L147.99 37.285L145.736 42.41H147.214L152.718 29.754H151.257L148.689 35.664Z" fill="#FDFDFC"/>
	<path d="M161.716 29.558C160.535 29.558 159.451 29.992 158.668 30.781C157.885 31.574 157.449 32.668 157.449 33.859C157.449 35.047 157.885 36.136 158.668 36.933C159.457 37.722 160.535 38.156 161.716 38.156C162.892 38.156 163.978 37.722 164.761 36.933C165.548 36.136 165.976 35.046 165.976 33.859C165.976 32.668 165.548 31.574 164.761 30.781C163.978 29.992 162.892 29.558 161.716 29.558ZM161.716 36.867C160.074 36.867 158.834 35.574 158.834 33.859C158.834 32.14 160.074 30.847 161.716 30.847C163.353 30.847 164.593 32.14 164.593 33.859C164.593 35.574 163.353 36.867 161.716 36.867Z" fill="#FDFDFC"/>
	<path d="M170.757 28.769C170.757 27.933 170.857 27.476 171.116 27.124C171.428 26.726 171.993 26.46 172.569 26.46C172.723 26.46 173.081 26.507 173.081 26.507L173.374 25.245C173.374 25.245 172.815 25.147 172.55 25.147C171.448 25.147 170.466 25.643 169.874 26.506C169.507 27.022 169.354 27.717 169.354 28.826V29.721H167.342V30.944H169.354V37.987H170.756V30.944H173.404V29.721H170.756V28.769H170.757Z" fill="#FDFDFC"/>
	<path d="M184.968 25.519H183.898L178.734 37.988H180.273L181.609 34.691H187.226L188.593 37.988H190.12L184.968 25.519ZM182.198 33.293L184.425 27.93L186.655 33.293H182.198Z" fill="#FDFDFC"/>
	<path d="M198.357 30.121C197.785 29.781 197.087 29.601 196.351 29.601C195.359 29.601 194.492 29.906 193.775 30.519L193.476 30.781V29.781H192.16V42.406H193.535V37.047L193.832 37.313C194.516 37.903 195.348 38.2 196.312 38.2C197.035 38.2 197.812 37.997 198.376 37.661C199.698 36.88 200.487 35.473 200.487 33.903C200.487 33.11 200.28 32.337 199.889 31.669C199.519 31.023 198.988 30.492 198.357 30.121ZM199.105 33.902C199.105 35.59 197.773 36.906 196.072 36.906C195.113 36.906 194.179 36.426 193.568 35.605V32.191C194.199 31.367 195.162 30.89 196.166 30.89C197.839 30.89 199.105 32.183 199.105 33.902Z" fill="#FDFDFC"/>
	<path d="M208.681 30.105C208.103 29.761 207.41 29.582 206.671 29.582C205.679 29.582 204.808 29.891 204.093 30.504L203.792 30.762V29.762H202.476V42.391H203.851V37.028L204.152 37.294C204.832 37.884 205.672 38.181 206.632 38.181C207.359 38.181 208.126 37.982 208.696 37.642C210.016 36.861 210.805 35.458 210.805 33.884C210.805 33.095 210.598 32.322 210.211 31.65C209.839 31.007 209.308 30.476 208.681 30.105ZM209.427 33.882C209.427 35.57 208.091 36.89 206.394 36.89C205.429 36.89 204.496 36.406 203.886 35.589V32.175C204.511 31.347 205.48 30.87 206.488 30.87C208.157 30.871 209.427 32.164 209.427 33.882Z" fill="#FDFDFC"/>
	<path d="M214.315 25.332H212.913V37.988H214.315V25.332Z" fill="#FDFDFC"/>
	<path d="M218.036 25.519C217.497 25.519 217.075 25.949 217.075 26.499C217.075 27.038 217.497 27.468 218.036 27.468C218.591 27.468 219.024 27.038 219.024 26.499C219.024 25.96 218.583 25.519 218.036 25.519Z" fill="#FDFDFC"/>
	<path d="M218.751 29.722H217.349V37.988H218.751V29.722Z" fill="#FDFDFC"/>
	<path d="M237.872 30.683L237.599 30.456C236.896 29.87 236.025 29.561 235.072 29.561C234.326 29.561 233.631 29.741 233.052 30.084C232.423 30.459 231.888 30.998 231.517 31.635C231.126 32.307 230.923 33.08 230.923 33.877C230.923 35.451 231.712 36.861 233.036 37.647C233.606 37.987 234.38 38.19 235.106 38.19C236.079 38.19 236.981 37.862 237.645 37.264L237.926 37.006V38.006H239.278V25.351H237.872V30.683ZM235.349 36.879C234.509 36.879 233.74 36.559 233.177 35.988C232.626 35.426 232.325 34.676 232.325 33.879C232.325 33.082 232.61 32.34 233.126 31.777C233.665 31.195 234.419 30.871 235.251 30.871C236.255 30.871 237.231 31.34 237.845 32.148V35.574C237.24 36.39 236.306 36.879 235.349 36.879Z" fill="#FDFDFC"/>
	<path d="M267.253 25.531C266.714 25.531 266.288 25.961 266.288 26.508C266.288 27.047 266.714 27.469 267.253 27.469C267.8 27.469 268.23 27.047 268.23 26.508C268.23 25.972 267.788 25.531 267.253 25.531Z" fill="#FDFDFC"/>
	<path d="M267.964 29.734H266.558V37.996H267.964V29.734Z" fill="#FDFDFC"/>
	<path d="M284.409 29.547C283.085 29.547 282.245 30.223 281.944 30.508L281.659 30.785V29.734H280.311V37.996H281.745V32.156C282.143 31.672 283.015 30.859 284.354 30.859C285.1 30.859 285.815 31.199 286.26 31.765C286.545 32.117 286.807 32.617 286.807 33.863V37.996H288.209V33.953C288.209 32.601 287.967 31.719 287.4 31.008C286.679 30.078 285.585 29.547 284.409 29.547Z" fill="#FDFDFC"/>
	<path d="M225.07 29.562C222.742 29.562 221.047 31.374 221.047 33.878C221.047 36.339 222.887 38.19 225.324 38.19C227.273 38.19 228.719 36.76 228.719 36.76L227.813 35.916C227.333 36.424 226.614 37.006 225.348 37.006C224.586 37.006 223.86 36.721 223.313 36.205C222.77 35.693 222.442 35.002 222.399 34.252L222.383 34.072H229.039C229.043 33.994 229.039 33.92 229.039 33.877C229.039 32.682 228.637 31.588 227.914 30.791C227.183 30 226.175 29.562 225.07 29.562ZM222.55 32.734C222.855 31.562 223.909 30.742 225.124 30.742C226.245 30.742 227.288 31.605 227.558 32.738L227.605 32.949H222.488L222.55 32.734Z" fill="#FDFDFC"/>
	<path d="M274.243 29.547C271.911 29.547 270.22 31.363 270.22 33.863C270.22 36.328 272.056 38.179 274.497 38.179C276.446 38.179 277.892 36.749 277.892 36.749L276.986 35.905C276.506 36.413 275.787 36.995 274.517 36.995C273.755 36.995 273.033 36.71 272.482 36.194C271.943 35.682 271.615 34.991 271.568 34.241L271.556 34.061H278.208C278.216 33.983 278.208 33.909 278.208 33.862C278.208 32.667 277.806 31.577 277.087 30.78C276.357 29.988 275.349 29.547 274.243 29.547ZM271.724 32.722C272.029 31.55 273.083 30.73 274.298 30.73C275.415 30.73 276.462 31.593 276.732 32.726L276.775 32.933H271.658L271.724 32.722Z" fill="#FDFDFC"/>
	<path d="M303.773 29.547C301.441 29.547 299.75 31.363 299.75 33.863C299.75 36.324 301.59 38.175 304.027 38.175C305.972 38.175 307.422 36.749 307.422 36.749L306.512 35.905C306.032 36.413 305.313 36.991 304.047 36.991C303.285 36.991 302.559 36.71 302.016 36.194C301.469 35.682 301.141 34.987 301.098 34.241L301.086 34.061H307.738C307.742 33.983 307.738 33.909 307.738 33.862C307.738 32.667 307.336 31.573 306.613 30.78C305.882 29.988 304.878 29.547 303.773 29.547ZM301.249 32.722C301.554 31.55 302.612 30.73 303.823 30.73C304.944 30.73 305.991 31.589 306.261 32.726L306.304 32.933H301.187L301.249 32.722Z" fill="#FDFDFC"/>
	<path d="M253.128 31.859C252.597 31.504 251.316 30.957 251.316 30.957C249.961 30.383 248.679 29.844 248.679 28.645C248.679 27.407 249.835 26.758 250.972 26.758C251.765 26.758 252.542 27.035 253.222 27.555L254.089 26.481C253.136 25.731 252.066 25.352 250.898 25.352C248.816 25.352 247.187 26.774 247.187 28.586C247.187 29.684 247.707 30.582 248.738 31.27C249.269 31.61 249.894 31.872 250.504 32.122C251.902 32.7 253.227 33.243 253.227 34.7C253.227 35.298 252.965 35.833 252.493 36.223C252.048 36.586 251.458 36.785 250.825 36.785C249.364 36.785 248.321 35.941 247.696 35.23L246.673 36.242C247.771 37.496 249.278 38.191 250.919 38.191C251.974 38.191 252.939 37.847 253.626 37.222C254.345 36.574 254.716 35.683 254.716 34.648C254.714 33.492 254.183 32.55 253.128 31.859Z" fill="#FDFDFC"/>
	<path d="M263.376 35.605C262.7 36.441 261.853 36.867 260.864 36.867C260.016 36.867 259.247 36.574 258.704 36.031C258.145 35.492 257.841 34.715 257.841 33.863C257.841 32.152 259.091 30.859 260.759 30.859C261.993 30.859 262.786 31.621 263.154 32.07L264.177 31.211C263.365 30.172 262.083 29.547 260.759 29.547C258.294 29.547 256.439 31.402 256.439 33.863C256.439 35.054 256.884 36.144 257.693 36.941C258.505 37.742 259.634 38.179 260.865 38.179C262.291 38.179 263.732 37.46 264.455 36.386L263.376 35.605Z" fill="#FDFDFC"/>
	<path d="M297.189 35.617C296.513 36.453 295.666 36.879 294.681 36.879C293.829 36.879 293.064 36.586 292.517 36.043C291.962 35.504 291.658 34.727 291.658 33.879C291.658 32.164 292.908 30.871 294.576 30.871C295.806 30.871 296.603 31.633 296.967 32.086L297.99 31.223C297.178 30.184 295.896 29.563 294.576 29.563C292.111 29.563 290.256 31.415 290.256 33.879C290.256 35.067 290.701 36.156 291.506 36.953C292.318 37.754 293.447 38.191 294.682 38.191C296.104 38.191 297.545 37.472 298.268 36.402L297.189 35.617Z" fill="#FDFDFC"/>
	<path d="M312.896 33.148C311.923 32.894 311.236 32.668 311.236 31.976C311.236 31.246 311.939 30.73 312.955 30.73C313.572 30.73 314.178 30.933 314.756 31.332L315.459 30.359C314.736 29.824 313.857 29.547 312.846 29.547C311.393 29.547 309.834 30.34 309.834 32.07C309.834 33.254 310.842 33.84 311.689 34.125C311.99 34.223 312.298 34.301 312.587 34.379C313.567 34.629 314.493 34.863 314.493 35.75C314.493 36.531 313.649 36.992 312.829 36.992C311.989 36.992 311.126 36.691 310.337 36.121L309.626 37.133C310.544 37.824 311.634 38.176 312.864 38.176C313.673 38.176 314.434 37.938 314.993 37.508C315.587 37.047 315.895 36.426 315.895 35.711C315.896 34.129 314.376 33.527 312.896 33.148Z" fill="#FDFDFC"/>
	<path d="M79.428 8.636H74.31V11.511H78.13V13.238H74.31V18.703H72.324V6.91H79.428V8.636Z" fill="#FDFDFC"/>
	<path d="M91.523 18.703H89.654V13.238H83.521V18.703H81.659V6.91H83.521V11.512H89.654V6.91H91.523V18.703Z" fill="#FDFDFC"/>
	<path d="M110.908 18.703H108.92V11.476L105.723 16.706H104.296L101.096 11.476V18.703H99.112V6.91H100.483L105.01 14.351L109.537 6.91H110.908V18.703Z" fill="#FDFDFC"/>
	<path d="M123.975 13.765C123.975 15.492 123.484 16.767 122.471 17.671C121.613 18.437 120.328 18.878 118.944 18.878C117.569 18.878 116.284 18.437 115.421 17.671C114.409 16.767 113.921 15.491 113.921 13.765V6.91H115.904V13.937C115.904 15.021 116.175 15.781 116.76 16.328C117.31 16.859 118.09 17.152 118.944 17.152C119.805 17.152 120.582 16.859 121.135 16.328C121.719 15.781 121.991 15.021 121.991 13.937V6.914H123.974V13.765H123.975Z" fill="#FDFDFC"/>
	<path d="M120.755 3.191C120.127 3.195 119.643 3.668 119.643 4.277C119.643 4.882 120.127 5.359 120.755 5.359C121.383 5.367 121.87 4.886 121.87 4.273C121.87 3.672 121.383 3.191 120.755 3.191Z" fill="#FDFDFC"/>
	<path d="M117.154 3.191C116.527 3.191 116.042 3.666 116.042 4.273C116.042 4.882 116.527 5.359 117.154 5.359C117.782 5.367 118.27 4.886 118.27 4.273C118.27 3.672 117.781 3.191 117.154 3.191Z" fill="#FDFDFC"/>
	<path d="M137.547 18.703H136.156L129.128 10.484V18.703H127.144V6.914H128.535L135.563 15.137V6.914H137.547V18.703V18.703Z" fill="#FDFDFC"/>
	<path d="M144.708 11.746C143.552 11.285 142.552 10.883 142.552 9.961C142.552 9.215 143.185 8.465 144.599 8.465C145.329 8.465 146.111 8.738 146.669 9.178L147.669 7.746C146.69 7.058 145.646 6.74 144.398 6.74C142.539 6.74 140.565 7.875 140.565 9.98C140.565 11.093 141.096 11.945 142.195 12.585C142.691 12.874 143.24 13.095 143.771 13.3C145.06 13.808 146.171 14.243 146.171 15.448C146.171 15.928 145.974 16.368 145.614 16.68C145.259 16.983 144.766 17.151 144.219 17.151C143.203 17.151 142.141 16.686 141.357 15.901L140.087 17.221C141.323 18.303 142.75 18.877 144.219 18.877C145.264 18.877 146.242 18.529 146.985 17.904C147.741 17.259 148.157 16.377 148.157 15.408C148.157 13.115 146.243 12.355 144.708 11.746Z" fill="#FDFDFC"/>
	<path d="M158.203 8.625H154.996V18.695H153.005V8.625H149.796V6.898H158.203V8.625Z" fill="#FDFDFC"/>
	<path d="M167.253 8.64H162.304V11.511H166.034V13.238H162.304V16.976H167.425V18.703H160.319V6.914H167.254V8.64H167.253Z" fill="#FDFDFC"/>
	<path d="M175.148 13.222L175.394 13.14C175.839 12.999 176.222 12.773 176.542 12.472C177.19 11.855 177.562 10.999 177.562 10.117C177.562 9.244 177.191 8.383 176.542 7.765C175.905 7.185 175.101 6.913 174.011 6.913H169.761V18.703H171.749V13.324H172.866L177.182 18.703H179.62L175.148 13.222ZM171.749 11.601V8.64H173.874C174.667 8.64 174.972 8.851 175.183 9.078C175.433 9.344 175.578 9.742 175.578 10.137C175.578 10.516 175.43 10.914 175.183 11.18C174.906 11.481 174.527 11.602 173.874 11.602H171.749V11.601Z" fill="#FDFDFC"/>
	</g>
	<defs>
	<clipPath id="clip0_0_3">
	<rect width="315.896" height="48.189" fill="white"/>
	</clipPath>
	</defs>
	</svg>
	